<svg xmlns="http://www.w3.org/2000/svg" viewBox="0 0 642 642" width="642" height="642"><defs><marker id="arr" viewBox="0 0 10 10" refX="9" refY="5" markerWidth="7" markerHeight="7" orient="auto-start-reverse"><path d="M0,0 L10,5 L0,10 z" fill="#333"/></marker></defs><rect width="642" height="642" fill="#fafafa"/><g transform="translate(14 14)"><rect width="300" height="300" fill="#fafafa" stroke="#ddd"/><polygon points="150.0,42.0 243.5,204.0 56.5,204.0" fill="none" stroke="#333" stroke-width="4"/><circle cx="150.0" cy="42.0" r="11" fill="#333"/><circle cx="243.5" cy="204.0" r="11" fill="#333"/><circle cx="56.5" cy="204.0" r="11" fill="#333"/><text x="284" y="284" font-size="34" font-family="serif" font-weight="bold" text-anchor="end" fill="#3b5bdb">A</text></g><g transform="translate(328 14)"><rect width="300" height="300" fill="#fafafa" stroke="#ddd"/><polygon points="235.0,65.0 235.0,235.0 65.0,235.0 65.0,65.0" fill="none" stroke="#333" stroke-width="4"/><circle cx="235.0" cy="150.0" r="9" fill="#333"/><circle cx="150.0" cy="235.0" r="9" fill="#333"/><circle cx="65.0" cy="150.0" r="9" fill="#333"/><circle cx="150.0" cy="65.0" r="9" fill="#333"/><text x="284" y="284" font-size="34" font-family="serif" font-weight="bold" text-anchor="end" fill="#3b5bdb">B</text></g><g transform="translate(14 328)"><rect width="300" height="300" fill="#fafafa" stroke="#ddd"/><polygon points="150.0,42.0 252.7,116.6 213.5,237.4 86.5,237.4 47.3,116.6" fill="none" stroke="#333" stroke-width="4"/><circle cx="201.4" cy="79.3" r="9" fill="#333"/><circle cx="233.1" cy="177.0" r="9" fill="#333"/><circle cx="150.0" cy="237.4" r="9" fill="#333"/><circle cx="66.9" cy="177.0" r="9" fill="#333"/><circle cx="98.6" cy="79.3" r="9" fill="#333"/><text x="284" y="284" font-size="34" font-family="serif" font-weight="bold" text-anchor="end" fill="#3b5bdb">C</text></g><g transform="translate(328 328)"><rect width="300" height="300" fill="#fafafa" stroke="#ddd"/><polygon points="150.0,42.0 243.5,96.0 243.5,204.0 150.0,258.0 56.5,204.0 56.5,96.0" fill="none" stroke="#333" stroke-width="4"/><circle cx="196.8" cy="69.0" r="9" fill="#333"/><circle cx="243.5" cy="150.0" r="9" fill="#333"/><circle cx="196.8" cy="231.0" r="9" fill="#333"/><circle cx="103.2" cy="231.0" r="9" fill="#333"/><circle cx="56.5" cy="150.0" r="9" fill="#333"/><circle cx="103.2" cy="69.0" r="9" fill="#333"/><text x="284" y="284" font-size="34" font-family="serif" font-weight="bold" text-anchor="end" fill="#3b5bdb">D</text></g></svg>