<svg xmlns="http://www.w3.org/2000/svg" viewBox="0 0 822 174" width="822" height="174"><defs><marker id="arr" viewBox="0 0 10 10" refX="9" refY="5" markerWidth="7" markerHeight="7" orient="auto-start-reverse"><path d="M0,0 L10,5 L0,10 z" fill="#333"/></marker></defs><rect width="822" height="174" fill="#fafafa"/><g transform="translate(12 12)"><rect width="150" height="150" fill="#fafafa" stroke="#ddd"/><polygon points="75.0,22.0 138.0,128.0 12.0,128.0" fill="none" stroke="#333" stroke-width="4"/><circle cx="75" cy="92" r="30" fill="none" stroke="#333" stroke-width="4"/><text x="140" y="140" font-size="24" font-family="serif" font-weight="bold" text-anchor="end" fill="#3b5bdb">1</text></g><g transform="translate(174 12)"><rect width="150" height="150" fill="#fafafa" stroke="#ddd"/><circle cx="75.0" cy="75.0" r="58.0" fill="none" stroke="#333" stroke-width="4"/><polygon points="75.0,32.0 115.0,105.0 35.0,105.0" fill="none" stroke="#333" stroke-width="4"/><text x="140" y="140" font-size="24" font-family="serif" font-weight="bold" text-anchor="end" fill="#3b5bdb">2</text></g><g transform="translate(336 12)"><rect width="150" height="150" fill="#fafafa" stroke="#ddd"/><polygon points="133.0,17.0 133.0,133.0 17.0,133.0 17.0,17.0" fill="none" stroke="#333" stroke-width="4"/><circle cx="75" cy="75" r="38" fill="none" stroke="#333" stroke-width="4"/><text x="140" y="140" font-size="24" font-family="serif" font-weight="bold" text-anchor="end" fill="#3b5bdb">3</text></g><g transform="translate(498 12)"><rect width="150" height="150" fill="#fafafa" stroke="#ddd"/><polygon points="75.0,22.0 138.0,128.0 12.0,128.0" fill="none" stroke="#333" stroke-width="4"/><circle cx="75" cy="92" r="30" fill="none" stroke="#333" stroke-width="4"/><rect x="8" y="8" width="18" height="18" fill="none" stroke="#333" stroke-width="4"/><text x="140" y="140" font-size="24" font-family="serif" font-weight="bold" text-anchor="end" fill="#3b5bdb">4</text></g><g transform="translate(660 12)"><rect width="150" height="150" fill="#fafafa" stroke="#ddd"/><polygon points="133.0,17.0 133.0,133.0 17.0,133.0 17.0,17.0" fill="none" stroke="#333" stroke-width="4"/><circle cx="52" cy="75" r="22" fill="none" stroke="#333" stroke-width="4"/><circle cx="98" cy="75" r="22" fill="none" stroke="#333" stroke-width="4"/><text x="140" y="140" font-size="24" font-family="serif" font-weight="bold" text-anchor="end" fill="#3b5bdb">5</text></g></svg>