<svg xmlns="http://www.w3.org/2000/svg" viewBox="0 0 642 642" width="642" height="642"><defs><marker id="arr" viewBox="0 0 10 10" refX="9" refY="5" markerWidth="7" markerHeight="7" orient="auto-start-reverse"><path d="M0,0 L10,5 L0,10 z" fill="#333"/></marker></defs><rect width="642" height="642" fill="#fafafa"/><g transform="translate(14 14)"><rect width="300" height="300" fill="#fafafa" stroke="#ddd"/><polygon points="150.0,40.0 260.0,150.0 150.0,260.0 40.0,150.0" fill="none" stroke="#333" stroke-width="4"/><line x1="205" y1="95" x2="95" y2="205" stroke="#333" stroke-width="4"/><text x="284" y="284" font-size="34" font-family="serif" font-weight="bold" text-anchor="end" fill="#3b5bdb">A</text></g><g transform="translate(328 14)"><rect width="300" height="300" fill="#fafafa" stroke="#ddd"/><polygon points="235.0,65.0 235.0,235.0 65.0,235.0 65.0,65.0" fill="none" stroke="#333" stroke-width="4"/><line x1="65" y1="65" x2="235" y2="235" stroke="#333" stroke-width="4"/><line x1="235" y1="65" x2="65" y2="235" stroke="#333" stroke-width="4"/><polygon points="150.0,30.0 270.0,170.0 60.0,200.0" fill="none" stroke="#bbb" stroke-width="4"/><text x="284" y="284" font-size="34" font-family="serif" font-weight="bold" text-anchor="end" fill="#3b5bdb">B</text></g><g transform="translate(14 328)"><rect width="300" height="300" fill="#fafafa" stroke="#ddd"/><rect x="35.0" y="90.0" width="230.0" height="120.0" fill="none" stroke="#333" stroke-width="4"/><line x1="35" y1="90" x2="265" y2="210" stroke="#333" stroke-width="4"/><text x="284" y="284" font-size="34" font-family="serif" font-weight="bold" text-anchor="end" fill="#3b5bdb">C</text></g><g transform="translate(328 328)"><rect width="300" height="300" fill="#fafafa" stroke="#ddd"/><polygon points="150.0,50.0 250.0,235.0 50.0,235.0" fill="none" stroke="#333" stroke-width="4"/><line x1="150" y1="50" x2="150" y2="235" stroke="#333" stroke-width="4"/><text x="284" y="284" font-size="34" font-family="serif" font-weight="bold" text-anchor="end" fill="#3b5bdb">D</text></g></svg>