<svg xmlns="http://www.w3.org/2000/svg" viewBox="0 0 900 300" width="900" height="300"><defs><marker id="arr" viewBox="0 0 10 10" refX="9" refY="5" markerWidth="7" markerHeight="7" orient="auto-start-reverse"><path d="M0,0 L10,5 L0,10 z" fill="#333"/></marker></defs><rect width="900" height="300" fill="#fafafa"/><g stroke="#ddd" stroke-width="2"><line x1="300" y1="0" x2="300" y2="300"/><line x1="600" y1="0" x2="600" y2="300"/></g><g transform="translate(0 0)"><rect x="30" y="110" width="40" height="80" fill="none" stroke="#333" stroke-width="3"/><text x="50.0" y="215.0" font-size="13" font-family="sans-serif" fill="#666" text-anchor="middle">1</text><rect x="70" y="110" width="40" height="80" fill="none" stroke="#333" stroke-width="3"/><text x="90.0" y="215.0" font-size="13" font-family="sans-serif" fill="#666" text-anchor="middle">2</text><rect x="110" y="110" width="40" height="80" fill="none" stroke="#333" stroke-width="3"/><text x="130.0" y="215.0" font-size="13" font-family="sans-serif" fill="#666" text-anchor="middle">3</text><rect x="150" y="110" width="40" height="80" fill="none" stroke="#333" stroke-width="3"/><text x="170.0" y="215.0" font-size="13" font-family="sans-serif" fill="#666" text-anchor="middle">4</text><rect x="190" y="110" width="40" height="80" fill="none" stroke="#333" stroke-width="3"/><text x="210.0" y="215.0" font-size="13" font-family="sans-serif" fill="#666" text-anchor="middle">5</text><rect x="230" y="110" width="40" height="80" fill="none" stroke="#333" stroke-width="3"/><text x="250.0" y="215.0" font-size="13" font-family="sans-serif" fill="#666" text-anchor="middle">6</text><circle cx="50" cy="150" r="13" fill="#333"/><circle cx="250" cy="150" r="13" fill="#fff" stroke="#333" stroke-width="4"/><text x="285" y="285" font-size="22" font-family="sans-serif" text-anchor="end" fill="#3b5bdb">1</text></g><g transform="translate(300 0)"><rect x="30" y="110" width="40" height="80" fill="none" stroke="#333" stroke-width="3"/><text x="50.0" y="215.0" font-size="13" font-family="sans-serif" fill="#666" text-anchor="middle">1</text><rect x="70" y="110" width="40" height="80" fill="none" stroke="#333" stroke-width="3"/><text x="90.0" y="215.0" font-size="13" font-family="sans-serif" fill="#666" text-anchor="middle">2</text><rect x="110" y="110" width="40" height="80" fill="none" stroke="#333" stroke-width="3"/><text x="130.0" y="215.0" font-size="13" font-family="sans-serif" fill="#666" text-anchor="middle">3</text><rect x="150" y="110" width="40" height="80" fill="none" stroke="#333" stroke-width="3"/><text x="170.0" y="215.0" font-size="13" font-family="sans-serif" fill="#666" text-anchor="middle">4</text><rect x="190" y="110" width="40" height="80" fill="none" stroke="#333" stroke-width="3"/><text x="210.0" y="215.0" font-size="13" font-family="sans-serif" fill="#666" text-anchor="middle">5</text><rect x="230" y="110" width="40" height="80" fill="none" stroke="#333" stroke-width="3"/><text x="250.0" y="215.0" font-size="13" font-family="sans-serif" fill="#666" text-anchor="middle">6</text><circle cx="90" cy="150" r="13" fill="#333"/><circle cx="210" cy="150" r="13" fill="#fff" stroke="#333" stroke-width="4"/><text x="285" y="285" font-size="22" font-family="sans-serif" text-anchor="end" fill="#3b5bdb">2</text></g><g transform="translate(600 0)"><rect x="30" y="110" width="40" height="80" fill="none" stroke="#333" stroke-width="3"/><text x="50.0" y="215.0" font-size="13" font-family="sans-serif" fill="#666" text-anchor="middle">1</text><rect x="70" y="110" width="40" height="80" fill="none" stroke="#333" stroke-width="3"/><text x="90.0" y="215.0" font-size="13" font-family="sans-serif" fill="#666" text-anchor="middle">2</text><rect x="110" y="110" width="40" height="80" fill="none" stroke="#333" stroke-width="3"/><text x="130.0" y="215.0" font-size="13" font-family="sans-serif" fill="#666" text-anchor="middle">3</text><rect x="150" y="110" width="40" height="80" fill="none" stroke="#333" stroke-width="3"/><text x="170.0" y="215.0" font-size="13" font-family="sans-serif" fill="#666" text-anchor="middle">4</text><rect x="190" y="110" width="40" height="80" fill="none" stroke="#333" stroke-width="3"/><text x="210.0" y="215.0" font-size="13" font-family="sans-serif" fill="#666" text-anchor="middle">5</text><rect x="230" y="110" width="40" height="80" fill="none" stroke="#333" stroke-width="3"/><text x="250.0" y="215.0" font-size="13" font-family="sans-serif" fill="#666" text-anchor="middle">6</text><circle cx="130" cy="150" r="13" fill="#333"/><circle cx="170" cy="150" r="13" fill="#fff" stroke="#333" stroke-width="4"/><text x="285" y="285" font-size="22" font-family="sans-serif" text-anchor="end" fill="#3b5bdb">3</text></g></svg>