<svg xmlns="http://www.w3.org/2000/svg" viewBox="0 0 1200 300" width="1200" height="300"><defs><marker id="arr" viewBox="0 0 10 10" refX="9" refY="5" markerWidth="7" markerHeight="7" orient="auto-start-reverse"><path d="M0,0 L10,5 L0,10 z" fill="#333"/></marker></defs><rect width="1200" height="300" fill="#fafafa"/><g stroke="#ddd" stroke-width="2"><line x1="300" y1="0" x2="300" y2="300"/><line x1="600" y1="0" x2="600" y2="300"/><line x1="900" y1="0" x2="900" y2="300"/></g><g transform="translate(0 0)"><polygon points="150.0,42.0 243.5,204.0 56.5,204.0" fill="none" stroke="#333" stroke-width="4"/><text x="285" y="285" font-size="22" font-family="sans-serif" text-anchor="end" fill="#3b5bdb">1</text></g><g transform="translate(300 0)"><polygon points="235.0,65.0 235.0,235.0 65.0,235.0 65.0,65.0" fill="none" stroke="#333" stroke-width="4"/><text x="285" y="285" font-size="22" font-family="sans-serif" text-anchor="end" fill="#3b5bdb">2</text></g><g transform="translate(600 0)"><polygon points="150.0,42.0 252.7,116.6 213.5,237.4 86.5,237.4 47.3,116.6" fill="none" stroke="#333" stroke-width="4"/><text x="285" y="285" font-size="22" font-family="sans-serif" text-anchor="end" fill="#3b5bdb">3</text></g><g transform="translate(900 0)"><polygon points="150.0,42.0 243.5,96.0 243.5,204.0 150.0,258.0 56.5,204.0 56.5,96.0" fill="none" stroke="#333" stroke-width="4"/><text x="285" y="285" font-size="22" font-family="sans-serif" text-anchor="end" fill="#3b5bdb">4</text></g></svg>