<svg xmlns="http://www.w3.org/2000/svg" viewBox="0 0 642 642" width="642" height="642"><defs><marker id="arr" viewBox="0 0 10 10" refX="9" refY="5" markerWidth="7" markerHeight="7" orient="auto-start-reverse"><path d="M0,0 L10,5 L0,10 z" fill="#333"/></marker></defs><rect width="642" height="642" fill="#fafafa"/><g transform="translate(14 14)"><rect width="300" height="300" fill="#fafafa" stroke="#ddd"/><path d="M85 70 V230 H135" fill="none" stroke="#888" stroke-width="11"/><line x1="150" y1="28" x2="150" y2="272" stroke="#3b5bdb" stroke-width="2" stroke-dasharray="6 4"/><path d="M215 70 V230 H165" fill="none" stroke="#333" stroke-width="11"/><text x="284" y="284" font-size="34" font-family="serif" font-weight="bold" text-anchor="end" fill="#3b5bdb">A</text></g><g transform="translate(328 14)"><rect width="300" height="300" fill="#fafafa" stroke="#ddd"/><path d="M85 70 V230 H135" fill="none" stroke="#888" stroke-width="11"/><line x1="150" y1="28" x2="150" y2="272" stroke="#3b5bdb" stroke-width="2" stroke-dasharray="6 4"/><path d="M215 230 V70 H265" fill="none" stroke="#333" stroke-width="11"/><text x="284" y="284" font-size="34" font-family="serif" font-weight="bold" text-anchor="end" fill="#3b5bdb">B</text></g><g transform="translate(14 328)"><rect width="300" height="300" fill="#fafafa" stroke="#ddd"/><path d="M85 70 V230 H135" fill="none" stroke="#888" stroke-width="11"/><line x1="150" y1="28" x2="150" y2="272" stroke="#3b5bdb" stroke-width="2" stroke-dasharray="6 4"/><path d="M215 70 V230 H265" fill="none" stroke="#333" stroke-width="11"/><text x="284" y="284" font-size="34" font-family="serif" font-weight="bold" text-anchor="end" fill="#3b5bdb">C</text></g><g transform="translate(328 328)"><rect width="300" height="300" fill="#fafafa" stroke="#ddd"/><path d="M85 70 V230 H135" fill="none" stroke="#888" stroke-width="11"/><line x1="150" y1="28" x2="150" y2="272" stroke="#3b5bdb" stroke-width="2" stroke-dasharray="6 4"/><path d="M215 230 V70 H165" fill="none" stroke="#333" stroke-width="11"/><text x="284" y="284" font-size="34" font-family="serif" font-weight="bold" text-anchor="end" fill="#3b5bdb">D</text></g></svg>