<svg xmlns="http://www.w3.org/2000/svg" viewBox="0 0 642 642" width="642" height="642"><defs><marker id="arr" viewBox="0 0 10 10" refX="9" refY="5" markerWidth="7" markerHeight="7" orient="auto-start-reverse"><path d="M0,0 L10,5 L0,10 z" fill="#333"/></marker></defs><rect width="642" height="642" fill="#fafafa"/><g transform="translate(14 14)"><rect width="300" height="300" fill="#fafafa" stroke="#ddd"/><polygon points="150.0,42.0 243.5,204.0 56.5,204.0" fill="none" stroke="#333" stroke-width="4"/><circle cx="150.0" cy="118.0" r="11" fill="#333"/><circle cx="124.0" cy="168.0" r="11" fill="#333"/><circle cx="176.0" cy="168.0" r="11" fill="#333"/><text x="284" y="284" font-size="34" font-family="serif" font-weight="bold" text-anchor="end" fill="#3b5bdb">A</text></g><g transform="translate(328 14)"><rect width="300" height="300" fill="#fafafa" stroke="#ddd"/><polygon points="235.0,65.0 235.0,235.0 65.0,235.0 65.0,65.0" fill="none" stroke="#333" stroke-width="4"/><circle cx="150.0" cy="118.0" r="11" fill="#333"/><circle cx="124.0" cy="168.0" r="11" fill="#333"/><circle cx="176.0" cy="168.0" r="11" fill="#333"/><text x="284" y="284" font-size="34" font-family="serif" font-weight="bold" text-anchor="end" fill="#3b5bdb">B</text></g><g transform="translate(14 328)"><rect width="300" height="300" fill="#fafafa" stroke="#ddd"/><polygon points="150.0,42.0 252.7,116.6 213.5,237.4 86.5,237.4 47.3,116.6" fill="none" stroke="#333" stroke-width="4"/><circle cx="126.0" cy="126.0" r="11" fill="#333"/><circle cx="174.0" cy="126.0" r="11" fill="#333"/><circle cx="126.0" cy="174.0" r="11" fill="#333"/><circle cx="174.0" cy="174.0" r="11" fill="#333"/><text x="284" y="284" font-size="34" font-family="serif" font-weight="bold" text-anchor="end" fill="#3b5bdb">C</text></g><g transform="translate(328 328)"><rect width="300" height="300" fill="#fafafa" stroke="#ddd"/><circle cx="150.0" cy="150.0" r="108.0" fill="none" stroke="#333" stroke-width="4"/><circle cx="150.0" cy="118.0" r="11" fill="#333"/><circle cx="124.0" cy="168.0" r="11" fill="#333"/><circle cx="176.0" cy="168.0" r="11" fill="#333"/><text x="284" y="284" font-size="34" font-family="serif" font-weight="bold" text-anchor="end" fill="#3b5bdb">D</text></g></svg>